# xmcd
#
# Track frame offsets:
#	150
#	11777
#	22143
#	37399
#	48038
#	59549
#	71631
#	82960
#	98888
#	111143
#	124955
#	137845
#	150456
#	160168
#	174743
#	189778
#	200072
#	213169
#	224839
#	237329
#	248202
#	260590
#	273487
#	284972
#	295735
#	308835
#	328613
#
# Disc length: 4642 seconds
#
# Revision: 1
# Processed by: cddbd v1.5.2PL0 Copyright (c) Steve Scherf et al.
# Submitted via: audiograbber 1.82.02
#
DISCID=a912201b
DTITLE=Various Artist - Soul Glo
DYEAR=1900
DGENRE=
TTITLE0=The Temptations - Get Ready
TTITLE1=Curtis Mayfield - We're Rolling On
TTITLE2=Edwin Starr - Twenty Five Miles
TTITLE3=Otis Redding - Hard to Handle
TTITLE4=Mel and Tim - Backfield in Motion
TTITLE5=Barbara Acklin - After you
TTITLE6=Brenton Wood - Oogum Boogum
TTITLE7=Joe Tex - Ain't Gonna Bump No More
TTITLE8=Linda Lydell - What a Man
TTITLE9=John KaSandra - Ain't I good
TTITLE10=Bobby Hedd - Sunny
TTITLE11=Isley Brothers - It's Your Thang
TTITLE12=Cyril Neville - Tell me What's On Your Mind
TTITLE13=Detriot Spinner - It's a Shame
TTITLE14=Rufus Thomas - Push and Pull
TTITLE15=Clarence Carter - Looking for a Fox
TTITLE16=Freda Payne - Band of Gold
TTITLE17=The Velvelettes - He Was Really Sayin' Something
TTITLE18=Betty Wright - Clean Up Woman
TTITLE19=Wilson Pickett - I'm a Midnight Mover
TTITLE20=Sam Cooke - Twisting the Night Away
TTITLE21=Tyrone Davis - Can I Change My Mind
TTITLE22=Branding Iron - Born Too Late
TTITLE23=Frank Wilson - Do I Love You
TTITLE24=Derek Martin - Soul Power
TTITLE25=bonus track 1
TTITLE26=bonus track 2
EXTD=
EXTT0=
EXTT1=
EXTT2=
EXTT3=
EXTT4=
EXTT5=
EXTT6=
EXTT7=
EXTT8=
EXTT9=
EXTT10=
EXTT11=
EXTT12=
EXTT13=
EXTT14=
EXTT15=
EXTT16=
EXTT17=
EXTT18=
EXTT19=
EXTT20=
EXTT21=
EXTT22=
EXTT23=
EXTT24=
EXTT25=
EXTT26=
PLAYORDER=
